<svg width="399" height="103" viewBox="0 0 399 103" fill="none" xmlns="http://www.w3.org/2000/svg">
<g filter="url(#filter0_d)">
<path d="M36.2246 73.2432C39.125 73.2432 41.6592 72.3643 43.8271 70.6064C45.9951 68.8486 47.1963 66.6514 47.4307 64.0146H55.1211C54.9746 66.7393 54.0371 69.332 52.3086 71.793C50.5801 74.2539 48.2656 76.2168 45.3652 77.6816C42.4941 79.1465 39.4473 79.8789 36.2246 79.8789C29.75 79.8789 24.5938 77.7256 20.7559 73.4189C16.9473 69.083 15.043 63.165 15.043 55.665V54.3027C15.043 49.6738 15.8926 45.5576 17.5918 41.9541C19.291 38.3506 21.7227 35.5527 24.8867 33.5605C28.0801 31.5684 31.8447 30.5723 36.1807 30.5723C41.5127 30.5723 45.9365 32.1689 49.4521 35.3623C52.9971 38.5557 54.8867 42.7012 55.1211 47.7988H47.4307C47.1963 44.7227 46.0244 42.2031 43.915 40.2402C41.835 38.248 39.2568 37.252 36.1807 37.252C32.0498 37.252 28.8418 38.7461 26.5566 41.7344C24.3008 44.6934 23.1729 48.9854 23.1729 54.6104V56.1484C23.1729 61.627 24.3008 65.8457 26.5566 68.8047C28.8125 71.7637 32.0352 73.2432 36.2246 73.2432ZM73.0947 79H64.9648V11.5H73.0947V79ZM94.9795 79H86.8496V31.4512H94.9795V79ZM86.1904 18.8389C86.1904 17.5205 86.5859 16.4072 87.377 15.499C88.1973 14.5908 89.3984 14.1367 90.9805 14.1367C92.5625 14.1367 93.7637 14.5908 94.584 15.499C95.4043 16.4072 95.8145 17.5205 95.8145 18.8389C95.8145 20.1572 95.4043 21.2559 94.584 22.1348C93.7637 23.0137 92.5625 23.4531 90.9805 23.4531C89.3984 23.4531 88.1973 23.0137 87.377 22.1348C86.5859 21.2559 86.1904 20.1572 86.1904 18.8389ZM127.104 73.2432C130.004 73.2432 132.538 72.3643 134.706 70.6064C136.874 68.8486 138.075 66.6514 138.31 64.0146H146C145.854 66.7393 144.916 69.332 143.188 71.793C141.459 74.2539 139.145 76.2168 136.244 77.6816C133.373 79.1465 130.326 79.8789 127.104 79.8789C120.629 79.8789 115.473 77.7256 111.635 73.4189C107.826 69.083 105.922 63.165 105.922 55.665V54.3027C105.922 49.6738 106.771 45.5576 108.471 41.9541C110.17 38.3506 112.602 35.5527 115.766 33.5605C118.959 31.5684 122.724 30.5723 127.06 30.5723C132.392 30.5723 136.815 32.1689 140.331 35.3623C143.876 38.5557 145.766 42.7012 146 47.7988H138.31C138.075 44.7227 136.903 42.2031 134.794 40.2402C132.714 38.248 130.136 37.252 127.06 37.252C122.929 37.252 119.721 38.7461 117.436 41.7344C115.18 44.6934 114.052 48.9854 114.052 54.6104V56.1484C114.052 61.627 115.18 65.8457 117.436 68.8047C119.691 71.7637 122.914 73.2432 127.104 73.2432ZM156.415 79V15.0156H177.333C184.276 15.0156 189.491 16.4512 192.978 19.3223C196.493 22.1934 198.251 26.4414 198.251 32.0664C198.251 35.0547 197.401 37.7061 195.702 40.0205C194.003 42.3057 191.688 44.0781 188.759 45.3379C192.216 46.3047 194.94 48.1504 196.933 50.875C198.954 53.5703 199.965 56.793 199.965 60.543C199.965 66.2852 198.104 70.7969 194.384 74.0781C190.663 77.3594 185.404 79 178.607 79H156.415ZM164.853 49.0732V72.1006H178.783C182.709 72.1006 185.8 71.0898 188.056 69.0684C190.341 67.0176 191.483 64.2051 191.483 60.6309C191.483 52.9258 187.294 49.0732 178.915 49.0732H164.853ZM164.853 42.3057H177.597C181.288 42.3057 184.232 41.3828 186.43 39.5371C188.656 37.6914 189.77 35.1865 189.77 32.0225C189.77 28.5068 188.744 25.958 186.693 24.376C184.643 22.7646 181.522 21.959 177.333 21.959H164.853V42.3057ZM209.062 54.7861C209.062 50.1279 209.97 45.9385 211.786 42.2178C213.632 38.4971 216.181 35.626 219.433 33.6045C222.714 31.583 226.449 30.5723 230.639 30.5723C237.113 30.5723 242.343 32.8135 246.327 37.2959C250.341 41.7783 252.348 47.7402 252.348 55.1816V55.7529C252.348 60.3818 251.454 64.542 249.667 68.2334C247.909 71.8955 245.375 74.752 242.064 76.8027C238.783 78.8535 235.004 79.8789 230.727 79.8789C224.281 79.8789 219.052 77.6377 215.038 73.1553C211.054 68.6729 209.062 62.7402 209.062 55.3574V54.7861ZM217.235 55.7529C217.235 61.0264 218.451 65.2598 220.883 68.4531C223.344 71.6465 226.625 73.2432 230.727 73.2432C234.857 73.2432 238.139 71.6318 240.57 68.4092C243.002 65.1572 244.218 60.6162 244.218 54.7861C244.218 49.5713 242.973 45.3525 240.482 42.1299C238.021 38.8779 234.74 37.252 230.639 37.252C226.625 37.252 223.388 38.8486 220.927 42.042C218.466 45.2354 217.235 49.8057 217.235 55.7529ZM291.898 79C291.43 78.0625 291.049 76.3926 290.756 73.9902C286.977 77.916 282.465 79.8789 277.221 79.8789C272.533 79.8789 268.681 78.5605 265.663 75.9238C262.675 73.2578 261.181 69.8887 261.181 65.8164C261.181 60.8652 263.056 57.0273 266.806 54.3027C270.585 51.5488 275.888 50.1719 282.714 50.1719H290.624V46.4365C290.624 43.5947 289.774 41.3389 288.075 39.6689C286.376 37.9697 283.871 37.1201 280.561 37.1201C277.66 37.1201 275.229 37.8525 273.266 39.3174C271.303 40.7822 270.321 42.5547 270.321 44.6348H262.147C262.147 42.2617 262.982 39.9766 264.652 37.7793C266.352 35.5527 268.637 33.7949 271.508 32.5059C274.408 31.2168 277.587 30.5723 281.044 30.5723C286.522 30.5723 290.814 31.9492 293.92 34.7031C297.025 37.4277 298.637 41.1924 298.754 45.9971V67.8818C298.754 72.2471 299.311 75.7188 300.424 78.2969V79H291.898ZM278.407 72.8037C280.956 72.8037 283.373 72.1445 285.658 70.8262C287.943 69.5078 289.599 67.7939 290.624 65.6846V55.9287H284.252C274.291 55.9287 269.311 58.8438 269.311 64.6738C269.311 67.2227 270.16 69.2148 271.859 70.6504C273.559 72.0859 275.741 72.8037 278.407 72.8037ZM334.481 38.7461C333.251 38.541 331.918 38.4385 330.482 38.4385C325.15 38.4385 321.532 40.709 319.628 45.25V79H311.498V31.4512H319.408L319.54 36.9443C322.206 32.6963 325.985 30.5723 330.878 30.5723C332.46 30.5723 333.661 30.7773 334.481 31.1875V38.7461ZM339.14 54.8301C339.14 47.5352 340.868 41.6758 344.325 37.252C347.782 32.7988 352.309 30.5723 357.904 30.5723C363.471 30.5723 367.88 32.4766 371.132 36.2852V11.5H379.262V79H371.791L371.396 73.9023C368.144 77.8867 363.617 79.8789 357.816 79.8789C352.309 79.8789 347.812 77.623 344.325 73.1113C340.868 68.5996 339.14 62.7109 339.14 55.4453V54.8301ZM347.27 55.7529C347.27 61.1436 348.383 65.3623 350.609 68.4092C352.836 71.4561 355.912 72.9795 359.838 72.9795C364.994 72.9795 368.759 70.665 371.132 66.0361V44.1953C368.7 39.7129 364.965 37.4717 359.926 37.4717C355.941 37.4717 352.836 39.0098 350.609 42.0859C348.383 45.1621 347.27 49.7178 347.27 55.7529Z" fill="#FFA439"/>
<path d="M47.4307 64.0146V62.0146H45.6006L45.4385 63.8376L47.4307 64.0146ZM55.1211 64.0146L57.1182 64.122L57.2315 62.0146H55.1211V64.0146ZM45.3652 77.6816L44.4636 75.8964L44.4563 75.9001L45.3652 77.6816ZM20.7559 73.4189L19.2532 74.7388L19.258 74.7442L19.2627 74.7496L20.7559 73.4189ZM24.8867 33.5605L23.8281 31.8637L23.8211 31.8681L24.8867 33.5605ZM49.4521 35.3623L48.1074 36.8428L48.1135 36.8483L49.4521 35.3623ZM55.1211 47.7988V49.7988H57.2152L57.119 47.707L55.1211 47.7988ZM47.4307 47.7988L45.4364 47.9508L45.5772 49.7988H47.4307V47.7988ZM43.915 40.2402L42.5317 41.6846L42.5421 41.6946L42.5526 41.7044L43.915 40.2402ZM26.5566 41.7344L24.9679 40.5195L24.9661 40.5218L26.5566 41.7344ZM36.2246 75.2432C39.5642 75.2432 42.5477 74.2186 45.0868 72.16L42.5675 69.0529C40.7706 70.5099 38.6858 71.2432 36.2246 71.2432V75.2432ZM45.0868 72.16C47.6495 70.082 49.1377 67.3994 49.4228 64.1917L45.4385 63.8376C45.2549 65.9034 44.3407 67.6152 42.5675 69.0529L45.0868 72.16ZM47.4307 66.0146H55.1211V62.0146H47.4307V66.0146ZM53.124 63.9073C52.9996 66.2199 52.2078 68.4568 50.672 70.6434L53.9452 72.9425C55.8664 70.2072 56.9496 67.2586 57.1182 64.122L53.124 63.9073ZM50.672 70.6434C49.1475 72.8139 47.0947 74.5676 44.4636 75.8964L46.2669 79.4669C49.4366 77.866 52.0127 75.6939 53.9452 72.9425L50.672 70.6434ZM44.4563 75.9001C41.8666 77.2214 39.1312 77.8789 36.2246 77.8789V81.8789C39.7633 81.8789 43.1217 81.0716 46.2742 79.4632L44.4563 75.9001ZM36.2246 77.8789C30.2427 77.8789 25.6586 75.9144 22.249 72.0883L19.2627 74.7496C23.5289 79.5368 29.2573 81.8789 36.2246 81.8789V77.8789ZM22.2585 72.0991C18.8567 68.2262 17.043 62.8281 17.043 55.665H13.043C13.043 63.502 15.0378 69.9398 19.2532 74.7388L22.2585 72.0991ZM17.043 55.665V54.3027H13.043V55.665H17.043ZM17.043 54.3027C17.043 49.9212 17.8462 46.104 19.4008 42.8071L15.7828 41.1011C13.939 45.0113 13.043 49.4264 13.043 54.3027H17.043ZM19.4008 42.8071C20.9485 39.5249 23.1325 37.0285 25.9523 35.253L23.8211 31.8681C20.3128 34.077 17.6336 37.1763 15.7828 41.1011L19.4008 42.8071ZM25.9453 35.2574C28.7752 33.492 32.1609 32.5723 36.1807 32.5723V28.5723C31.5285 28.5723 27.3849 29.6447 23.8281 31.8637L25.9453 35.2574ZM36.1807 32.5723C41.0811 32.5723 45.0057 34.0254 48.1074 36.8427L50.7969 33.8819C46.8673 30.3125 41.9443 28.5723 36.1807 28.5723V32.5723ZM48.1135 36.8483C51.2315 39.657 52.9115 43.286 53.1232 47.8907L57.119 47.707C56.8619 42.1164 54.7626 37.4543 50.7908 33.8763L48.1135 36.8483ZM55.1211 45.7988H47.4307V49.7988H55.1211V45.7988ZM49.4249 47.6469C49.1553 44.1082 47.7824 41.107 45.2775 38.7761L42.5526 41.7044C44.2664 43.2992 45.2373 45.3371 45.4364 47.9508L49.4249 47.6469ZM45.2984 38.7958C42.8191 36.4213 39.7337 35.252 36.1807 35.252V39.252C38.7799 39.252 40.8509 40.0748 42.5317 41.6846L45.2984 38.7958ZM36.1807 35.252C31.4972 35.252 27.6722 36.9831 24.9679 40.5195L28.1454 42.9493C30.0114 40.5091 32.6024 39.252 36.1807 39.252V35.252ZM24.9661 40.5218C22.3394 43.9672 21.1729 48.7601 21.1729 54.6104H25.1729C25.1729 49.2106 26.2621 45.4195 28.1471 42.9469L24.9661 40.5218ZM21.1729 54.6104V56.1484H25.1729V54.6104H21.1729ZM21.1729 56.1484C21.1729 61.8665 22.3453 66.5795 24.9661 70.0173L28.1471 67.5921C26.2563 65.1119 25.1729 61.3874 25.1729 56.1484H21.1729ZM24.9661 70.0173C27.6516 73.5398 31.501 75.2432 36.2246 75.2432V71.2432C32.5693 71.2432 29.9734 69.9876 28.1471 67.5921L24.9661 70.0173ZM73.0947 79V81H75.0947V79H73.0947ZM64.9648 79H62.9648V81H64.9648V79ZM64.9648 11.5V9.5H62.9648V11.5H64.9648ZM73.0947 11.5H75.0947V9.5H73.0947V11.5ZM73.0947 77H64.9648V81H73.0947V77ZM66.9648 79V11.5H62.9648V79H66.9648ZM64.9648 13.5H73.0947V9.5H64.9648V13.5ZM71.0947 11.5V79H75.0947V11.5H71.0947ZM94.9795 79V81H96.9795V79H94.9795ZM86.8496 79H84.8496V81H86.8496V79ZM86.8496 31.4512V29.4512H84.8496V31.4512H86.8496ZM94.9795 31.4512H96.9795V29.4512H94.9795V31.4512ZM87.377 15.499L85.8927 14.1585L85.8806 14.1718L85.8688 14.1855L87.377 15.499ZM87.377 22.1348L85.8904 23.4727L85.9025 23.4862L85.9148 23.4994L87.377 22.1348ZM94.9795 77H86.8496V81H94.9795V77ZM88.8496 79V31.4512H84.8496V79H88.8496ZM86.8496 33.4512H94.9795V29.4512H86.8496V33.4512ZM92.9795 31.4512V79H96.9795V31.4512H92.9795ZM88.1904 18.8389C88.1904 17.9541 88.4422 17.3212 88.8851 16.8126L85.8688 14.1855C84.7297 15.4933 84.1904 17.0869 84.1904 18.8389H88.1904ZM88.8612 16.8396C89.1986 16.466 89.7884 16.1367 90.9805 16.1367V12.1367C89.0085 12.1367 87.196 12.7156 85.8927 14.1585L88.8612 16.8396ZM90.9805 16.1367C92.1726 16.1367 92.7624 16.466 93.0998 16.8396L96.0682 14.1585C94.765 12.7156 92.9524 12.1367 90.9805 12.1367V16.1367ZM93.0998 16.8396C93.5612 17.3505 93.8145 17.9742 93.8145 18.8389H97.8145C97.8145 17.0668 97.2474 15.464 96.0682 14.1585L93.0998 16.8396ZM93.8145 18.8389C93.8145 19.7039 93.5618 20.2987 93.1219 20.7701L96.0461 23.4994C97.2467 22.213 97.8145 20.6106 97.8145 18.8389H93.8145ZM93.1219 20.7701C92.7892 21.1266 92.1919 21.4531 90.9805 21.4531V25.4531C92.9331 25.4531 94.7381 24.9008 96.0461 23.4994L93.1219 20.7701ZM90.9805 21.4531C89.769 21.4531 89.1717 21.1266 88.8391 20.7701L85.9148 23.4994C87.2228 24.9008 89.0278 25.4531 90.9805 25.4531V21.4531ZM88.8635 20.7968C88.4418 20.3282 88.1904 19.7243 88.1904 18.8389H84.1904C84.1904 20.5901 84.7301 22.1835 85.8904 23.4727L88.8635 20.7968ZM138.31 64.0146V62.0146H136.479L136.317 63.8376L138.31 64.0146ZM146 64.0146L147.997 64.122L148.11 62.0146H146V64.0146ZM136.244 77.6816L135.342 75.8964L135.335 75.9001L136.244 77.6816ZM111.635 73.4189L110.132 74.7388L110.137 74.7442L110.142 74.7496L111.635 73.4189ZM115.766 33.5605L114.707 31.8637L114.7 31.8681L115.766 33.5605ZM140.331 35.3623L138.986 36.8428L138.992 36.8483L140.331 35.3623ZM146 47.7988V49.7988H148.094L147.998 47.707L146 47.7988ZM138.31 47.7988L136.315 47.9508L136.456 49.7988H138.31V47.7988ZM134.794 40.2402L133.411 41.6846L133.421 41.6946L133.431 41.7044L134.794 40.2402ZM117.436 41.7344L115.847 40.5195L115.845 40.5218L117.436 41.7344ZM127.104 75.2432C130.443 75.2432 133.427 74.2186 135.966 72.16L133.446 69.0529C131.65 70.5099 129.565 71.2432 127.104 71.2432V75.2432ZM135.966 72.16C138.528 70.082 140.017 67.3994 140.302 64.1917L136.317 63.8376C136.134 65.9034 135.22 67.6152 133.446 69.0529L135.966 72.16ZM138.31 66.0146H146V62.0146H138.31V66.0146ZM144.003 63.9073C143.879 66.2199 143.087 68.4568 141.551 70.6434L144.824 72.9425C146.745 70.2072 147.828 67.2586 147.997 64.122L144.003 63.9073ZM141.551 70.6434C140.026 72.8139 137.974 74.5676 135.343 75.8964L137.146 79.4669C140.315 77.866 142.892 75.6939 144.824 72.9425L141.551 70.6434ZM135.335 75.9001C132.746 77.2214 130.01 77.8789 127.104 77.8789V81.8789C130.642 81.8789 134.001 81.0716 137.153 79.4632L135.335 75.9001ZM127.104 77.8789C121.122 77.8789 116.538 75.9144 113.128 72.0883L110.142 74.7496C114.408 79.5368 120.136 81.8789 127.104 81.8789V77.8789ZM113.137 72.0991C109.736 68.2262 107.922 62.8281 107.922 55.665H103.922C103.922 63.502 105.917 69.9398 110.132 74.7388L113.137 72.0991ZM107.922 55.665V54.3027H103.922V55.665H107.922ZM107.922 54.3027C107.922 49.9212 108.725 46.104 110.28 42.8071L106.662 41.1011C104.818 45.0113 103.922 49.4264 103.922 54.3027H107.922ZM110.28 42.8071C111.827 39.5249 114.011 37.0285 116.831 35.253L114.7 31.8681C111.192 34.077 108.512 37.1763 106.662 41.1011L110.28 42.8071ZM116.824 35.2574C119.654 33.492 123.04 32.5723 127.06 32.5723V28.5723C122.407 28.5723 118.264 29.6447 114.707 31.8637L116.824 35.2574ZM127.06 32.5723C131.96 32.5723 135.885 34.0254 138.986 36.8427L141.676 33.8819C137.746 30.3125 132.823 28.5723 127.06 28.5723V32.5723ZM138.992 36.8483C142.11 39.657 143.79 43.286 144.002 47.8907L147.998 47.707C147.741 42.1164 145.642 37.4543 141.67 33.8763L138.992 36.8483ZM146 45.7988H138.31V49.7988H146V45.7988ZM140.304 47.6469C140.034 44.1082 138.661 41.107 136.156 38.7761L133.431 41.7044C135.145 43.2992 136.116 45.3371 136.315 47.9508L140.304 47.6469ZM136.177 38.7958C133.698 36.4213 130.613 35.252 127.06 35.252V39.252C129.659 39.252 131.73 40.0748 133.411 41.6846L136.177 38.7958ZM127.06 35.252C122.376 35.252 118.551 36.9831 115.847 40.5195L119.024 42.9493C120.89 40.5091 123.481 39.252 127.06 39.252V35.252ZM115.845 40.5218C113.218 43.9672 112.052 48.7601 112.052 54.6104H116.052C116.052 49.2106 117.141 45.4195 119.026 42.9469L115.845 40.5218ZM112.052 54.6104V56.1484H116.052V54.6104H112.052ZM112.052 56.1484C112.052 61.8665 113.224 66.5795 115.845 70.0173L119.026 67.5921C117.135 65.1119 116.052 61.3874 116.052 56.1484H112.052ZM115.845 70.0173C118.531 73.5398 122.38 75.2432 127.104 75.2432V71.2432C123.448 71.2432 120.852 69.9876 119.026 67.5921L115.845 70.0173ZM156.415 79H154.415V81H156.415V79ZM156.415 15.0156V13.0156H154.415V15.0156H156.415ZM192.978 19.3223L191.706 20.8661L191.712 20.8713L192.978 19.3223ZM195.702 40.0205L197.307 41.2139L197.314 41.2041L195.702 40.0205ZM188.759 45.3379L187.969 43.5006L182.765 45.7383L188.22 47.264L188.759 45.3379ZM196.933 50.875L195.318 52.0555L195.325 52.0653L195.333 52.075L196.933 50.875ZM164.853 49.0732V47.0732H162.853V49.0732H164.853ZM164.853 72.1006H162.853V74.1006H164.853V72.1006ZM188.056 69.0684L189.39 70.5578L189.391 70.5568L188.056 69.0684ZM164.853 42.3057H162.853V44.3057H164.853V42.3057ZM186.43 39.5371L185.153 37.9973L185.143 38.0057L186.43 39.5371ZM186.693 24.376L185.458 25.9486L185.465 25.9541L185.472 25.9595L186.693 24.376ZM164.853 21.959V19.959H162.853V21.959H164.853ZM158.415 79V15.0156H154.415V79H158.415ZM156.415 17.0156H177.333V13.0156H156.415V17.0156ZM177.333 17.0156C184.05 17.0156 188.726 18.4119 191.706 20.8661L194.249 17.7784C190.256 14.4904 184.503 13.0156 177.333 13.0156V17.0156ZM191.712 20.8713C194.653 23.2731 196.251 26.8845 196.251 32.0664H200.251C200.251 25.9983 198.333 21.1136 194.243 17.7732L191.712 20.8713ZM196.251 32.0664C196.251 34.6475 195.526 36.8803 194.09 38.8369L197.314 41.2041C199.276 38.5318 200.251 35.4619 200.251 32.0664H196.251ZM194.097 38.8271C192.633 40.7969 190.614 42.3629 187.969 43.5006L189.549 47.1752C192.762 45.7934 195.373 43.8145 197.307 41.2139L194.097 38.8271ZM188.22 47.264C191.275 48.1182 193.608 49.7169 195.318 52.0555L198.547 49.6945C196.273 46.5838 193.157 44.4912 189.297 43.4118L188.22 47.264ZM195.333 52.075C197.065 54.3851 197.965 57.1743 197.965 60.543H201.965C201.965 56.4117 200.843 52.7555 198.533 49.675L195.333 52.075ZM197.965 60.543C197.965 65.811 196.281 69.7379 193.061 72.5781L195.707 75.5781C199.927 71.8558 201.965 66.7593 201.965 60.543H197.965ZM193.061 72.5781C189.822 75.4347 185.098 77 178.607 77V81C185.71 81 191.504 79.284 195.707 75.5781L193.061 72.5781ZM178.607 77H156.415V81H178.607V77ZM162.853 49.0732V72.1006H166.853V49.0732H162.853ZM164.853 74.1006H178.783V70.1006H164.853V74.1006ZM178.783 74.1006C183.052 74.1006 186.67 72.9959 189.39 70.5578L186.721 67.5789C184.93 69.1838 182.366 70.1006 178.783 70.1006V74.1006ZM189.391 70.5568C192.17 68.0633 193.483 64.6706 193.483 60.6309H189.483C189.483 63.7396 188.512 65.9719 186.72 67.5799L189.391 70.5568ZM193.483 60.6309C193.483 56.4249 192.332 52.9155 189.695 50.4905C187.09 48.0946 183.373 47.0732 178.915 47.0732V51.0732C182.836 51.0732 185.403 51.9781 186.988 53.4348C188.54 54.8623 189.483 57.1317 189.483 60.6309H193.483ZM178.915 47.0732H164.853V51.0732H178.915V47.0732ZM164.853 44.3057H177.597V40.3057H164.853V44.3057ZM177.597 44.3057C181.621 44.3057 185.066 43.2949 187.716 41.0685L185.143 38.0057C183.399 39.4707 180.955 40.3057 177.597 40.3057V44.3057ZM187.706 41.0769C190.438 38.8124 191.77 35.7183 191.77 32.0225H187.77C187.77 34.6547 186.875 36.5704 185.153 37.9973L187.706 41.0769ZM191.77 32.0225C191.77 28.1244 190.618 24.8778 187.915 22.7924L185.472 25.9595C186.87 27.0382 187.77 28.8893 187.77 32.0225H191.77ZM187.929 22.8033C185.369 20.7916 181.718 19.959 177.333 19.959V23.959C181.327 23.959 183.917 24.7377 185.458 25.9486L187.929 22.8033ZM177.333 19.959H164.853V23.959H177.333V19.959ZM162.853 21.959V42.3057H166.853V21.959H162.853ZM211.786 42.2178L209.994 41.329L209.989 41.3404L211.786 42.2178ZM219.433 33.6045L218.384 31.9017L218.377 31.9059L219.433 33.6045ZM246.327 37.2959L244.832 38.6246L244.837 38.6301L246.327 37.2959ZM249.667 68.2334L247.867 67.3619L247.864 67.3679L249.667 68.2334ZM242.064 76.8027L241.011 75.1025L241.004 75.1067L242.064 76.8027ZM215.038 73.1553L213.543 74.484L213.548 74.4894L215.038 73.1553ZM220.883 68.4531L219.292 69.6648L219.299 69.674L220.883 68.4531ZM240.57 68.4092L242.167 69.6138L242.172 69.6069L240.57 68.4092ZM240.482 42.1299L238.888 43.3368L238.894 43.3448L238.9 43.3528L240.482 42.1299ZM211.062 54.7861C211.062 50.3937 211.916 46.5102 213.583 43.0952L209.989 41.3404C208.023 45.3668 207.062 49.8622 207.062 54.7861H211.062ZM213.578 43.1066C215.273 39.6897 217.579 37.1117 220.488 35.3031L218.377 31.9059C214.782 34.1403 211.991 37.3045 209.994 41.329L213.578 43.1066ZM220.482 35.3073C223.42 33.4969 226.786 32.5723 230.639 32.5723V28.5723C226.112 28.5723 222.008 29.6691 218.384 31.9017L220.482 35.3073ZM230.639 32.5723C236.593 32.5723 241.26 34.606 244.832 38.6246L247.822 35.9672C243.425 31.0209 237.633 28.5723 230.639 28.5723V32.5723ZM244.837 38.6301C248.449 42.6642 250.348 48.111 250.348 55.1816H254.348C254.348 47.3694 252.232 40.8924 247.817 35.9617L244.837 38.6301ZM250.348 55.1816V55.7529H254.348V55.1816H250.348ZM250.348 55.7529C250.348 60.119 249.506 63.9753 247.867 67.3619L251.467 69.1049C253.402 65.1087 254.348 60.6446 254.348 55.7529H250.348ZM247.864 67.3679C246.264 70.7016 243.983 73.2617 241.011 75.1025L243.118 78.5029C246.767 76.2422 249.555 73.0895 251.47 69.0989L247.864 67.3679ZM241.004 75.1067C238.074 76.9383 234.67 77.8789 230.727 77.8789V81.8789C235.338 81.8789 239.492 80.7688 243.124 78.4987L241.004 75.1067ZM230.727 77.8789C224.804 77.8789 220.133 75.847 216.528 71.8211L213.548 74.4894C217.971 79.4284 223.758 81.8789 230.727 81.8789V77.8789ZM216.533 71.8265C212.945 67.7898 211.062 62.3684 211.062 55.3574H207.062C207.062 63.112 209.163 69.5559 213.543 74.484L216.533 71.8265ZM211.062 55.3574V54.7861H207.062V55.3574H211.062ZM215.235 55.7529C215.235 61.3267 216.522 66.0277 219.292 69.6648L222.474 67.2415C220.38 64.4918 219.235 60.726 219.235 55.7529H215.235ZM219.299 69.674C222.146 73.3686 226.017 75.2432 230.727 75.2432V71.2432C227.233 71.2432 224.542 69.9244 222.467 67.2323L219.299 69.674ZM230.727 75.2432C235.468 75.2432 239.347 73.3509 242.167 69.6138L238.974 67.2045C236.93 69.9128 234.247 71.2432 230.727 71.2432V75.2432ZM242.172 69.6069C244.953 65.8874 246.218 60.8661 246.218 54.7861H242.218C242.218 60.3663 241.051 64.427 238.969 67.2115L242.172 69.6069ZM246.218 54.7861C246.218 49.2541 244.894 44.5676 242.065 40.907L238.9 43.3528C241.052 46.1375 242.218 49.8884 242.218 54.7861H246.218ZM242.077 40.923C239.236 37.1681 235.362 35.252 230.639 35.252V39.252C234.118 39.252 236.807 40.5877 238.888 43.3368L242.077 40.923ZM230.639 35.252C226.001 35.252 222.18 37.139 219.343 40.8212L222.511 43.2628C224.595 40.5582 227.249 39.252 230.639 39.252V35.252ZM219.343 40.8212C216.511 44.496 215.235 49.5654 215.235 55.7529H219.235C219.235 50.0459 220.421 45.9747 222.511 43.2628L219.343 40.8212ZM291.898 79L290.11 79.8944L290.662 81H291.898V79ZM290.756 73.9902L292.741 73.7481L292.232 69.5731L289.315 72.6032L290.756 73.9902ZM265.663 75.9238L264.332 77.4162L264.339 77.4231L264.347 77.4299L265.663 75.9238ZM266.806 54.3027L267.981 55.9208L267.983 55.9191L266.806 54.3027ZM290.624 50.1719V52.1719H292.624V50.1719H290.624ZM288.075 39.6689L286.661 41.0832L286.667 41.0893L286.673 41.0954L288.075 39.6689ZM270.321 44.6348V46.6348H272.321V44.6348H270.321ZM262.147 44.6348H260.147V46.6348H262.147V44.6348ZM264.652 37.7793L263.062 36.5659L263.06 36.5691L264.652 37.7793ZM271.508 32.5059L270.696 30.6782L270.689 30.6813L271.508 32.5059ZM293.92 34.7031L292.593 36.1995L292.601 36.2065L293.92 34.7031ZM298.754 45.9971H300.754V45.9727L300.753 45.9483L298.754 45.9971ZM300.424 78.2969H302.424V77.8835L302.26 77.504L300.424 78.2969ZM300.424 79V81H302.424V79H300.424ZM290.624 65.6846L292.423 66.559L292.624 66.1449V65.6846H290.624ZM290.624 55.9287H292.624V53.9287H290.624V55.9287ZM293.687 78.1056C293.387 77.5052 293.033 76.1428 292.741 73.7481L288.771 74.2323C289.064 76.6423 289.472 78.6198 290.11 79.8944L293.687 78.1056ZM289.315 72.6032C285.896 76.1545 281.898 77.8789 277.221 77.8789V81.8789C283.032 81.8789 288.057 79.6775 292.197 75.3773L289.315 72.6032ZM277.221 77.8789C272.93 77.8789 269.572 76.6832 266.979 74.4178L264.347 77.4299C267.79 80.4379 272.136 81.8789 277.221 81.8789V77.8789ZM266.995 74.4314C264.44 72.1521 263.181 69.3297 263.181 65.8164H259.181C259.181 70.4477 260.91 74.3635 264.332 77.4162L266.995 74.4314ZM263.181 65.8164C263.181 61.4544 264.789 58.24 267.981 55.9208L265.63 52.6847C261.322 55.8147 259.181 60.2761 259.181 65.8164H263.181ZM267.983 55.9191C271.296 53.5055 276.125 52.1719 282.714 52.1719V48.1719C275.651 48.1719 269.874 49.5922 265.628 52.6863L267.983 55.9191ZM282.714 52.1719H290.624V48.1719H282.714V52.1719ZM292.624 50.1719V46.4365H288.624V50.1719H292.624ZM292.624 46.4365C292.624 43.1695 291.632 40.3598 289.477 38.2425L286.673 41.0954C287.917 42.3179 288.624 44.02 288.624 46.4365H292.624ZM289.489 38.2547C287.292 36.0571 284.197 35.1201 280.561 35.1201V39.1201C283.545 39.1201 285.46 39.8824 286.661 41.0832L289.489 38.2547ZM280.561 35.1201C277.311 35.1201 274.438 35.9468 272.069 37.7145L274.462 40.9202C276.019 39.7583 278.009 39.1201 280.561 39.1201V35.1201ZM272.069 37.7145C269.702 39.481 268.321 41.8066 268.321 44.6348H272.321C272.321 43.3028 272.903 42.0834 274.462 40.9202L272.069 37.7145ZM270.321 42.6348H262.147V46.6348H270.321V42.6348ZM264.147 44.6348C264.147 42.7675 264.794 40.8977 266.245 38.9895L263.06 36.5691C261.17 39.0554 260.147 41.7559 260.147 44.6348H264.147ZM266.242 38.9926C267.716 37.0622 269.722 35.5002 272.327 34.3304L270.689 30.6813C267.552 32.0896 264.988 34.0433 263.062 36.5659L266.242 38.9926ZM272.32 34.3335C274.943 33.1679 277.842 32.5723 281.044 32.5723V28.5723C277.332 28.5723 273.874 29.2657 270.696 30.6782L272.32 34.3335ZM281.044 32.5723C286.193 32.5723 289.957 33.8621 292.593 36.1995L295.247 33.2067C291.672 30.0363 286.852 28.5723 281.044 28.5723V32.5723ZM292.601 36.2065C295.217 38.5015 296.648 41.6999 296.754 46.0458L300.753 45.9483C300.625 40.6849 298.834 36.354 295.239 33.1997L292.601 36.2065ZM296.754 45.9971V67.8818H300.754V45.9971H296.754ZM296.754 67.8818C296.754 72.3845 297.323 76.1614 298.588 79.0897L302.26 77.504C301.298 75.2761 300.754 72.1096 300.754 67.8818H296.754ZM298.424 78.2969V79H302.424V78.2969H298.424ZM300.424 77H291.898V81H300.424V77ZM278.407 74.8037C281.32 74.8037 284.08 74.0458 286.658 72.5585L284.659 69.0938C282.666 70.2432 280.593 70.8037 278.407 70.8037V74.8037ZM286.658 72.5585C289.244 71.0663 291.201 69.0716 292.423 66.559L288.825 64.8102C287.996 66.5163 286.643 67.9493 284.659 69.0938L286.658 72.5585ZM292.624 65.6846V55.9287H288.624V65.6846H292.624ZM290.624 53.9287H284.252V57.9287H290.624V53.9287ZM284.252 53.9287C279.142 53.9287 274.981 54.6649 272.036 56.3889C268.925 58.2098 267.311 61.0575 267.311 64.6738H271.311C271.311 62.4601 272.187 60.9353 274.056 59.8411C276.091 58.6501 279.401 57.9287 284.252 57.9287V53.9287ZM267.311 64.6738C267.311 67.7156 268.351 70.3048 270.569 72.1782L273.15 69.1226C271.969 68.1249 271.311 66.7297 271.311 64.6738H267.311ZM270.569 72.1782C272.697 73.9764 275.367 74.8037 278.407 74.8037V70.8037C276.116 70.8037 274.42 70.1955 273.15 69.1226L270.569 72.1782ZM334.481 38.7461L334.153 40.7189L336.481 41.107V38.7461H334.481ZM319.628 45.25L317.784 44.4765L317.628 44.8476V45.25H319.628ZM319.628 79V81H321.628V79H319.628ZM311.498 79H309.498V81H311.498V79ZM311.498 31.4512V29.4512H309.498V31.4512H311.498ZM319.408 31.4512L321.408 31.4032L321.361 29.4512H319.408V31.4512ZM319.54 36.9443L317.541 36.9923L317.7 43.6385L321.234 38.0075L319.54 36.9443ZM334.481 31.1875H336.481V29.9514L335.376 29.3986L334.481 31.1875ZM334.81 36.7733C333.456 36.5477 332.012 36.4385 330.482 36.4385V40.4385C331.824 40.4385 333.046 40.5344 334.153 40.7189L334.81 36.7733ZM330.482 36.4385C327.533 36.4385 324.905 37.0679 322.707 38.4473C320.497 39.8338 318.87 41.886 317.784 44.4765L321.472 46.0235C322.29 44.073 323.424 42.7194 324.833 41.8354C326.253 40.9443 328.099 40.4385 330.482 40.4385V36.4385ZM317.628 45.25V79H321.628V45.25H317.628ZM319.628 77H311.498V81H319.628V77ZM313.498 79V31.4512H309.498V79H313.498ZM311.498 33.4512H319.408V29.4512H311.498V33.4512ZM317.409 31.4992L317.541 36.9923L321.539 36.8964L321.408 31.4032L317.409 31.4992ZM321.234 38.0075C323.545 34.3246 326.694 32.5723 330.878 32.5723V28.5723C325.276 28.5723 320.867 31.068 317.846 35.8812L321.234 38.0075ZM330.878 32.5723C332.344 32.5723 333.178 32.7717 333.587 32.9764L335.376 29.3986C334.145 28.783 332.576 28.5723 330.878 28.5723V32.5723ZM332.481 31.1875V38.7461H336.481V31.1875H332.481ZM344.325 37.252L345.901 38.4835L345.905 38.4784L344.325 37.252ZM371.132 36.2852L369.611 37.5838L373.132 41.7075V36.2852H371.132ZM371.132 11.5V9.5H369.132V11.5H371.132ZM379.262 11.5H381.262V9.5H379.262V11.5ZM379.262 79V81H381.262V79H379.262ZM371.791 79L369.797 79.1547L369.94 81H371.791V79ZM371.396 73.9023L373.39 73.7476L373.003 68.7694L369.846 72.6377L371.396 73.9023ZM344.325 73.1113L342.738 74.3278L342.743 74.3342L344.325 73.1113ZM371.132 66.0361L372.912 66.9485L373.132 66.5189V66.0361H371.132ZM371.132 44.1953H373.132V43.6878L372.89 43.2416L371.132 44.1953ZM341.14 54.8301C341.14 47.8469 342.792 42.4625 345.901 38.4834L342.749 36.0205C338.945 40.889 337.14 47.2234 337.14 54.8301H341.14ZM345.905 38.4784C348.987 34.509 352.932 32.5723 357.904 32.5723V28.5723C351.685 28.5723 346.578 31.0886 342.745 36.0255L345.905 38.4784ZM357.904 32.5723C362.959 32.5723 366.784 34.2732 369.611 37.5838L372.653 34.9865C368.976 30.6799 363.983 28.5723 357.904 28.5723V32.5723ZM373.132 36.2852V11.5H369.132V36.2852H373.132ZM371.132 13.5H379.262V9.5H371.132V13.5ZM377.262 11.5V79H381.262V11.5H377.262ZM379.262 77H371.791V81H379.262V77ZM373.785 78.8453L373.39 73.7476L369.401 74.0571L369.797 79.1547L373.785 78.8453ZM369.846 72.6377C367.026 76.0935 363.103 77.8789 357.816 77.8789V81.8789C364.131 81.8789 369.262 79.68 372.945 75.167L369.846 72.6377ZM357.816 77.8789C352.953 77.8789 349.031 75.9302 345.908 71.8884L342.743 74.3342C346.592 79.3159 351.664 81.8789 357.816 81.8789V77.8789ZM345.913 71.8949C342.79 67.8191 341.14 62.3948 341.14 55.4453H337.14C337.14 63.0271 338.947 69.3801 342.738 74.3278L345.913 71.8949ZM341.14 55.4453V54.8301H337.14V55.4453H341.14ZM345.27 55.7529C345.27 61.3923 346.431 66.0811 348.995 69.5892L352.224 67.2291C350.335 64.6436 349.27 60.8948 349.27 55.7529H345.27ZM348.995 69.5892C351.615 73.1754 355.304 74.9795 359.838 74.9795V70.9795C356.52 70.9795 354.057 69.7367 352.224 67.2291L348.995 69.5892ZM359.838 74.9795C362.723 74.9795 365.329 74.3287 367.576 72.9474C369.822 71.5667 371.588 69.5305 372.912 66.9485L369.352 65.1237C368.303 67.1707 367 68.6061 365.481 69.5399C363.963 70.473 362.109 70.9795 359.838 70.9795V74.9795ZM373.132 66.0361V44.1953H369.132V66.0361H373.132ZM372.89 43.2416C371.533 40.7403 369.759 38.7716 367.536 37.4376C365.311 36.1029 362.75 35.4717 359.926 35.4717V39.4717C362.141 39.4717 363.967 39.9611 365.478 40.8676C366.99 41.7748 368.299 43.1679 369.374 45.149L372.89 43.2416ZM359.926 35.4717C355.337 35.4717 351.613 37.2881 348.989 40.9133L352.23 43.2586C354.059 40.7315 356.546 39.4717 359.926 39.4717V35.4717ZM348.989 40.9133C346.409 44.4786 345.27 49.5261 345.27 55.7529H349.27C349.27 49.9094 350.357 45.8457 352.23 43.2586L348.989 40.9133Z" fill="#801111"/>
</g>
<defs>
<filter id="filter0_d" x="0.0429688" y="0.5" width="398.219" height="102.379" filterUnits="userSpaceOnUse" color-interpolation-filters="sRGB">
<feFlood flood-opacity="0" result="BackgroundImageFix"/>
<feColorMatrix in="SourceAlpha" type="matrix" values="0 0 0 0 0 0 0 0 0 0 0 0 0 0 0 0 0 0 127 0"/>
<feOffset dx="2" dy="6"/>
<feGaussianBlur stdDeviation="7.5"/>
<feColorMatrix type="matrix" values="0 0 0 0 0 0 0 0 0 0 0 0 0 0 0 0 0 0 0.25 0"/>
<feBlend mode="normal" in2="BackgroundImageFix" result="effect1_dropShadow"/>
<feBlend mode="normal" in="SourceGraphic" in2="effect1_dropShadow" result="shape"/>
</filter>
</defs>
</svg>
