<svg id="Layer_1" enable-background="new 0 0 511.894 511.894" height="512" viewBox="0 0 511.894 511.894" width="512" xmlns="http://www.w3.org/2000/svg"><path d="m193.302 333.091-3.536 24.752 24.751-3.535 102.06-102.059-21.217-21.217z"/><path d="m341.153 227.672c5.849-5.849 5.849-15.367-.001-21.217-2.833-2.833-6.601-4.393-10.607-4.393s-7.774 1.561-10.608 4.394l-3.363 3.363 21.216 21.216z"/><path d="m132.278 121.272v-63.378h-51v454h349.336v-454h-50.999v63.378zm230.088 127.613-133.706 133.707-49.501 7.071-17.205 17.205-21.213-21.214 17.205-17.205 7.071-49.5 133.706-133.707c8.5-8.5 19.801-13.181 31.821-13.181s23.321 4.681 31.821 13.18c17.547 17.549 17.547 46.098.001 63.644z"/><path d="m349.614 24.515h-54.2c-5.918-14.372-20.075-24.515-36.558-24.515h-5.818c-16.482 0-30.64 10.143-36.558 24.515h-54.2v66.757h187.334z"/></svg>