<svg width="70" height="100" viewBox="0 0 70 100" fill="none" xmlns="http://www.w3.org/2000/svg">
<path d="M22.4478 65.0703L21.7393 69.9057L26.6989 69.2151L47.1497 49.2776L42.8982 45.1328L22.4478 65.0703Z" fill="#767765"/>
<path d="M52.0738 44.4765C53.2459 43.3339 53.2459 41.4745 52.0736 40.3317C51.506 39.7783 50.7509 39.4735 49.9482 39.4735C49.1455 39.4735 48.3904 39.7785 47.8226 40.3319L47.1487 40.9889L51.4 45.1335L52.0738 44.4765Z" fill="#767765"/>
<path d="M10.2194 23.6909V11.3098H0V100H70V11.3098H59.7808V23.6909H10.2194ZM56.3245 48.6205L29.5324 74.7405L22 76L13.5 77.5L15 71L16.7796 62.3077L43.5717 36.1876C45.2749 34.5271 47.5394 33.6127 49.948 33.6127C52.3565 33.6127 54.621 34.5271 56.3242 36.1874C59.8403 39.6157 59.8403 45.1928 56.3245 48.6205Z" fill="#767765"/>
<path d="M53.7695 4.78908H42.9089C41.723 1.98146 38.8862 0 35.5834 0H34.4175C31.1149 0 28.2779 1.98146 27.092 4.78908H16.2314V17.8303H53.7695V4.78908Z" fill="#767765"/>
</svg>
