<svg width="75" height="78" viewBox="0 0 75 78" fill="none" xmlns="http://www.w3.org/2000/svg">
<path d="M74.2594 49.2571L66.1271 42.8025C66.2812 41.5544 66.3969 40.287 66.3969 39C66.3969 37.713 66.2812 36.4456 66.1271 35.1975L74.2788 28.7429C75.011 28.1579 75.2231 27.1049 74.7413 26.247L67.0328 12.7335C66.551 11.8949 65.549 11.5439 64.6818 11.8949L55.0848 15.8144C53.0999 14.2738 50.9223 12.9675 48.5713 11.973L47.126 1.638C46.9523 0.721562 46.1623 0 45.1988 0H29.782C28.8186 0 28.0283 0.721562 27.8742 1.638L26.4289 11.973C24.0779 12.9675 21.9001 14.2545 19.9153 15.8144L10.3184 11.8949C9.45117 11.5635 8.44902 11.8949 7.96737 12.7335L0.258715 26.247C-0.223121 27.0855 -0.0110189 28.1385 0.72122 28.7429L8.85353 35.1975C8.69942 36.4456 8.5838 37.713 8.5838 39C8.5838 40.287 8.69942 41.5544 8.85353 42.8025L0.72122 49.2571C-0.0110189 49.8421 -0.223121 50.8951 0.258715 51.753L7.96719 65.2665C8.44902 66.1051 9.45099 66.4561 10.3182 66.1051L19.9152 62.1856C21.9001 63.7262 24.0777 65.0325 26.4287 66.027L27.874 76.362C28.0281 77.2784 28.8184 78 29.7819 78H45.1986C46.1621 78 46.9523 77.2784 47.1065 76.362L48.5518 66.027C50.9028 65.0325 53.0805 63.7455 55.0653 62.1856L64.6623 66.1051C65.5295 66.4365 66.5316 66.1051 67.0133 65.2665L74.7218 51.753C75.2038 50.9146 74.9917 49.8616 74.2594 49.2571ZM37.4903 52.6501C30.0325 52.6501 24.0006 46.5465 24.0006 39C24.0006 31.4535 30.0325 25.3501 37.4903 25.3501C44.9482 25.3501 50.9801 31.4537 50.9801 39.0002C50.9801 46.5467 44.9482 52.6501 37.4903 52.6501Z" fill="#767765"/>
</svg>
